<svg width="13" height="12" viewBox="0 0 13 12" fill="none" xmlns="http://www.w3.org/2000/svg">
<path d="M6.48663 3C6.77304 3.00006 7.0477 3.10523 7.25019 3.2924L11.5702 7.28423C11.6733 7.37628 11.7556 7.4864 11.8122 7.60816C11.8688 7.72991 11.8986 7.86086 11.8999 7.99337C11.9011 8.12588 11.8738 8.25729 11.8195 8.37994C11.7652 8.50258 11.685 8.614 11.5836 8.7077C11.4822 8.80141 11.3616 8.87551 11.2289 8.92568C11.0961 8.97586 10.9539 9.00111 10.8105 8.99996C10.6671 8.99881 10.5254 8.97128 10.3936 8.91898C10.2619 8.86668 10.1427 8.79065 10.0431 8.69533L6.48663 5.40907L2.93019 8.69533C2.7265 8.87712 2.45369 8.97771 2.17052 8.97543C1.88735 8.97316 1.61647 8.86821 1.41623 8.68318C1.21599 8.49815 1.10241 8.24785 1.09994 7.98619C1.09748 7.72453 1.20634 7.47244 1.40307 7.28422L5.72307 3.2924C5.92557 3.10523 6.20022 3.00006 6.48663 3Z" fill="#1A56DB"/>
</svg>
