<?xml version="1.0" encoding="UTF-8"?><svg id="Livello_3" xmlns="http://www.w3.org/2000/svg" viewBox="0 0 313.8667 86.5167"><defs><style>.cls-1{fill:#fff;}</style></defs><g id="Livello_1"><path class="cls-1" d="M126.9157,66.6627c-13.2904,0-22.5328-10.1198-22.5328-24.0172s9.2424-24.0172,22.5328-24.0172,22.5331,10.1195,22.5331,24.0172-9.2426,24.0172-22.5331,24.0172ZM126.9157,61.2654c9.8499,0,16.5288-7.7582,16.5288-18.6199s-6.679-18.6199-16.5288-18.6199-16.5286,7.7582-16.5286,18.6199,6.679,18.6199,16.5286,18.6199Z"/><path class="cls-1" d="M188.243,49.0545c0,10.5243-7.0163,17.6081-16.5288,17.6081-5.8018,0-9.7147-2.3613-11.806-5.6671v18.7552h-5.5322V31.8513h4.79l.7422,5.5319c2.2938-3.1707,6.0042-5.9368,11.806-5.9368,9.5125,0,16.5288,6.4091,16.5288,17.6081ZM182.5758,49.0545c0-7.4886-4.5876-12.6832-11.4015-12.6832-6.7462,0-11.3337,5.1946-11.3337,12.5482,0,7.5561,4.5876,12.8181,11.3337,12.8181,6.8139,0,11.4015-5.1948,11.4015-12.6832Z"/><path class="cls-1" d="M197.0149,54.9238c.2024,4.0478,3.7782,7.0163,9.5125,7.0163,4.8575,0,8.298-2.0914,8.298-5.2623,0-4.3177-3.7779-4.6548-8.9053-5.262-7.6908-.9446-13.8299-2.4962-13.8299-9.6475,0-6.2741,5.7343-10.3894,13.4926-10.3219,7.826.0675,13.4928,3.7104,14.0326,10.8617h-5.6671c-.4046-3.508-3.643-6.1392-8.3655-6.1392-4.7897,0-8.0281,2.0239-8.0281,5.1948,0,3.7779,3.643,4.2502,8.6354,4.8572,7.8257.9446,14.0998,2.4287,14.0998,10.0523,0,6.4091-6.1392,10.3894-13.7625,10.3894-8.9053,0-15.0444-4.1827-15.1794-11.7388h5.6669Z"/><path class="cls-1" d="M223.5299,49.0545c0-10.4569,7.0163-17.6081,17.0683-17.6081s17.0683,7.1513,17.0683,17.6081-7.0163,17.6081-17.0683,17.6081-17.0683-7.1513-17.0683-17.6081ZM251.9997,49.0545c0-7.3537-4.5876-12.6832-11.4015-12.6832s-11.4015,5.3295-11.4015,12.6832,4.5876,12.6832,11.4015,12.6832,11.4015-5.3295,11.4015-12.6832Z"/><path class="cls-1" d="M279.7964,31.8513v5.397h-2.7661c-7.2185,0-9.1749,6.0045-9.1749,11.4689v17.5406h-5.5322V31.8513h4.79l.7422,5.1948c1.6191-2.6312,4.2502-5.1948,10.3894-5.1948h1.5516Z"/><path class="cls-1" d="M313.8667,61.1979v5.0599h-3.0357c-4.5876,0-6.1394-1.9564-6.2069-5.3298-2.1586,3.1035-5.5997,5.7346-11.5364,5.7346-7.5561,0-12.6832-3.7779-12.6832-10.0523,0-6.8811,4.79-10.7268,13.8299-10.7268h10.1198v-2.361c0-4.4526-3.1707-7.1513-8.5679-7.1513-4.8575,0-8.0959,2.2938-8.7703,5.8018h-5.5322c.8097-6.7464,6.2741-10.7268,14.5724-10.7268,8.7703,0,13.8302,4.3852,13.8302,12.4133v15.0444c0,1.8218.6747,2.2938,2.226,2.2938h1.7543ZM304.3542,50.5387h-10.6593c-4.9249,0-7.691,1.8215-7.691,5.7346,0,3.3731,2.901,5.6669,7.4886,5.6669,6.8814,0,10.8617-3.9803,10.8617-9.7149v-1.6865Z"/><path class="cls-1" d="M86.5165,43.2582c0-2.7067-1.0541-5.2503-2.9682-7.1622l-4.5805-4.5802v-.9335c0-12.6981-10.3325-23.029-23.0333-23.029h-.9248l-4.5843-4.5851c-1.9146-1.9141-4.4588-2.9682-7.1647-2.9682s-5.2506,1.0541-7.1647,2.9682l-4.5848,4.5851h-.9292c-12.6981,0-23.029,10.3308-23.029,23.029v.9289l-4.5848,4.5848c-1.9141,1.9119-2.9682,4.4555-2.9682,7.1622s1.0541,5.2506,2.9677,7.1625l4.5854,4.5848v.9289c0,12.6984,10.3308,23.0293,23.029,23.0293h.9292l4.5848,4.5848c1.9141,1.9138,4.4588,2.9682,7.1647,2.9682s5.2501-1.0541,7.1647-2.9682l4.5843-4.5848h.9249c12.7009,0,23.0333-10.3308,23.0333-23.0293v-.9335l4.5805-4.5802c1.9141-1.9119,2.9682-4.4555,2.9682-7.1625ZM78.5524,31.6877v23.1413l-23.7149,23.7193h-23.1544L7.9684,54.8336v-23.1504L31.6832,7.9687h23.1544l23.7149,23.719Z"/></g></svg>